Coordinates
version=1
nRows=30
nColumns=38
inDegrees=no

Units are S.I. units (second, meters, Newtons, ...)
If the header above contains a line with 'inDegrees', this indicates whether rotational values are in degrees (yes) or radians (no).

endheader
time	pelvis_tilt	pelvis_list	pelvis_rotation	pelvis_tx	pelvis_ty	pelvis_tz	hip_flexion_r	hip_adduction_r	hip_rotation_r	knee_angle_r	ankle_angle_r	subtalar_angle_r	mtp_angle_r	hip_flexion_l	hip_adduction_l	hip_rotation_l	knee_angle_l	ankle_angle_l	subtalar_angle_l	mtp_angle_l	lumbar_extension	lumbar_bending	lumbar_rotation	arm_flex_r	arm_add_r	arm_rot_r	elbow_flex_r	pro_sup_r	wrist_flex_r	wrist_dev_r	arm_flex_l	arm_add_l	arm_rot_l	elbow_flex_l	pro_sup_l	wrist_flex_l	wrist_dev_l
2.81	-0.103349	-0.100857	-0.00811385	0.901048	1.02799	-0.334001	0.570418	0.0904865	-0.291473	-0.305797	0.0881756	-0.1	-0.00207031	-0.137005	-0.180814	-0.312823	-1.37492	0.022034	0.1	-0.00152637	-0.0850139	0.215222	-0.0999474	-0.771149	-0.260435	-0.380207	1.95214	1.63824	5.73056e-06	8.11363e-06	-0.267437	-0.326032	0.232796	2.34528	1.75631	9.36602e-06	5.24658e-06
2.82	-0.103933	-0.113357	-0.00779616	0.898253	1.02129	-0.333171	0.566162	0.106489	-0.282889	-0.365998	0.116613	-0.1	-0.00207031	-0.0800509	-0.203664	-0.289928	-1.48855	0.042353	0.1	-0.00152637	-0.095811	0.229804	-0.0835136	-0.73239	-0.278538	-0.370062	1.92723	1.63861	5.73056e-06	8.11363e-06	-0.288253	-0.34038	0.215094	2.31285	1.74729	9.36602e-06	5.24658e-06
2.83	-0.105973	-0.125389	-0.00881393	0.894766	1.01405	-0.332143	0.566424	0.122783	-0.270323	-0.443474	0.16179	-0.1	-0.00207031	-0.0157434	-0.225424	-0.266836	-1.59707	0.066683	0.1	-0.00152637	-0.106967	0.242579	-0.0638173	-0.688695	-0.297135	-0.357329	1.90043	1.63917	5.73056e-06	8.11363e-06	-0.308911	-0.355121	0.194416	2.27827	1.74084	9.36602e-06	5.24658e-06
2.84	-0.108895	-0.135616	-0.0111898	0.890661	1.00684	-0.331016	0.567803	0.138254	-0.254656	-0.530723	0.22326	-0.1	-0.00207031	0.0549147	-0.243987	-0.243387	-1.69806	0.0950558	0.1	-0.00152637	-0.118866	0.252144	-0.0409761	-0.640407	-0.315371	-0.342565	1.87281	1.63953	5.73056e-06	8.11363e-06	-0.328961	-0.369735	0.171533	2.24202	1.73799	9.36602e-06	5.24658e-06
2.85	-0.112219	-0.142745	-0.0146324	0.886101	1.00019	-0.329901	0.566514	0.151508	-0.236944	-0.619405	0.29834	-0.1	-0.00207031	0.130672	-0.257335	-0.21977	-1.78894	0.127001	0.1	-0.00152637	-0.131446	0.257234	-0.015524	-0.588501	-0.332454	-0.326398	1.84601	1.63965	5.73056e-06	8.11363e-06	-0.348199	-0.383732	0.147389	2.20472	1.73921	9.36602e-06	5.24658e-06
2.86	-0.115709	-0.145648	-0.0185686	0.881263	0.9944	-0.328898	0.559008	0.161024	-0.218252	-0.701334	0.382301	-0.1	-0.00207031	0.210175	-0.263786	-0.196531	-1.8672	0.16155	0.1	-0.00152637	-0.144043	0.25685	0.0116543	-0.534654	-0.347686	-0.309461	1.82225	1.63979	5.73056e-06	8.11363e-06	-0.366688	-0.39673	0.123074	2.16722	1.74431	9.36602e-06	5.24658e-06
2.87	-0.119474	-0.143505	-0.0222614	0.87635	0.989595	-0.328097	0.542538	0.165369	-0.199655	-0.769445	0.46896	-0.1	-0.00207031	0.292088	-0.262242	-0.174535	-1.93059	0.197306	0.1	-0.00152637	-0.155426	0.250378	0.0394936	-0.481156	-0.360496	-0.292328	1.80413	1.64032	5.73056e-06	8.11363e-06	-0.38474	-0.408493	0.0997301	2.1307	1.75245	9.36602e-06	5.24658e-06
2.88	-0.123899	-0.135928	-0.0249623	0.871637	0.985898	-0.327557	0.515534	0.163442	-0.18226	-0.818486	0.55132	-0.1	-0.00207031	0.37512	-0.252333	-0.154821	-1.97739	0.232463	0.1	-0.00152637	-0.164007	0.237671	0.0669726	-0.430644	-0.370467	-0.27546	1.7943	1.64165	5.73056e-06	8.11363e-06	-0.402863	-0.418933	0.0784173	2.09663	1.76229	9.36602e-06	5.24658e-06
2.89	-0.129479	-0.123004	-0.0260694	0.867438	0.983431	-0.32731	0.477653	0.154691	-0.167203	-0.845305	0.622145	-0.1	-0.00207031	0.457991	-0.234477	-0.13842	-2.00648	0.265041	0.1	-0.00152637	-0.168209	0.219093	0.0933014	-0.385696	-0.377375	-0.259141	1.795	1.64413	5.73056e-06	8.11363e-06	-0.421688	-0.428056	0.059939	2.06668	1.77228	9.36602e-06	5.24658e-06
2.9	-0.136649	-0.105289	-0.0252265	0.864055	0.982258	-0.327366	0.429596	0.139213	-0.155587	-0.848815	0.674527	-0.1	-0.00207031	0.539351	-0.209812	-0.126171	-2.01745	0.29326	0.1	-0.00152637	-0.166852	0.195463	0.118018	-0.348405	-0.381216	-0.243415	1.80768	1.64802	5.73056e-06	8.11363e-06	-0.44191	-0.435868	0.0446856	2.04245	1.78101	9.36602e-06	5.24658e-06
2.91	-0.145623	-0.0837133	-0.0223669	0.861731	0.982347	-0.327727	0.372813	0.11774	-0.148398	-0.82977	0.702517	-0.1	-0.00207031	0.617743	-0.180028	-0.118592	-2.01052	0.31597	0.1	-0.00152637	-0.159423	0.167932	0.140976	-0.320043	-0.382213	-0.228058	1.83264	1.65357	5.73056e-06	8.11363e-06	-0.464223	-0.442285	0.0325467	2.02527	1.78744	9.36602e-06	5.24658e-06
2.92	-0.156324	-0.0594605	-0.0176926	0.860613	0.983609	-0.328391	0.309234	0.0915178	-0.146396	-0.790504	0.70179	-0.1	-0.00207031	0.691626	-0.147112	-0.115783	-1.98643	0.332849	0.1	-0.00152637	-0.146166	0.137834	0.162246	-0.300905	-0.380774	-0.212603	1.86903	1.66107	5.73056e-06	8.11363e-06	-0.48925	-0.447084	0.0229345	2.01595	1.791	9.36602e-06	5.24658e-06
2.93	-0.168367	-0.0338392	-0.0116002	0.860733	0.985921	-0.329342	0.241054	0.0621494	-0.150009	-0.734697	0.67028	-0.1	-0.00207031	0.759446	-0.113103	-0.117414	-1.94629	0.344356	0.1	-0.00152637	-0.128037	0.106553	0.18199	-0.290352	-0.37742	-0.196435	1.91492	1.67082	5.73056e-06	8.11363e-06	-0.517447	-0.449897	0.014917	2.01465	1.79151	9.36602e-06	5.24658e-06
2.94	-0.181104	-0.00819717	-0.00458373	0.861995	0.989138	-0.330542	0.170593	0.031439	-0.159241	-0.667196	0.608708	-0.1	-0.00207031	0.81972	-0.0799179	-0.122799	-1.89136	0.351544	0.1	-0.00152637	-0.106549	0.0754461	0.200357	-0.287012	-0.372716	-0.178935	1.96766	1.68305	5.73056e-06	8.11363e-06	-0.548988	-0.450259	0.00741406	2.02085	1.78907	9.36602e-06	5.24658e-06
2.95	-0.193686	0.0161447	0.00285275	0.864198	0.993084	-0.331931	0.100197	0.00126351	-0.173579	-0.59384	0.520823	-0.1	-0.00207031	0.871123	-0.0492469	-0.131065	-1.82298	0.355745	0.1	-0.00152637	-0.0835702	0.0458123	0.217423	-0.28907	-0.367204	-0.159628	2.02421	1.69771	5.73056e-06	8.11363e-06	-0.583671	-0.44768	-0.000599761	2.03345	1.7839	9.36602e-06	5.24658e-06
2.96	-0.205186	0.0379153	0.0102498	0.867064	0.997549	-0.333407	0.032162	-0.0265439	-0.191886	-0.521223	0.413246	-0.1	-0.00207031	0.912556	-0.0225119	-0.141403	-1.74237	0.358298	0.1	-0.00152637	-0.0610877	0.0188481	0.233181	-0.294565	-0.361356	-0.138313	2.08151	1.71441	5.73056e-06	8.11363e-06	-0.620892	-0.441723	-0.00993993	2.05096	1.77635	9.36602e-06	5.24658e-06
2.97	-0.214738	0.0559766	0.0172328	0.870279	1.00229	-0.334845	-0.0313384	-0.0503139	-0.212373	-0.456301	0.29481	-0.1	-0.00207031	0.943212	-0.000837948	-0.153321	-1.65069	0.360268	0.1	-0.00152637	-0.0409607	-0.00439901	0.247554	-0.301654	-0.355547	-0.115135	2.13666	1.7323	5.73056e-06	8.11363e-06	-0.659672	-0.432089	-0.0211217	2.07171	1.76694	9.36602e-06	5.24658e-06
2.98	-0.22164	0.0694328	0.023543	0.873536	1.00705	-0.33611	-0.0883754	-0.0686956	-0.232771	-0.405808	0.175452	-0.1	-0.00207031	0.96263	0.0150286	-0.166817	-1.54906	0.362171	0.1	-0.00152637	-0.0247001	-0.0231224	0.260403	-0.3088	-0.350026	-0.0905864	2.18707	1.75024	5.73056e-06	8.11363e-06	-0.698762	-0.418682	-0.0343301	2.0941	1.75635	9.36602e-06	5.24658e-06
2.99	-0.225432	0.0777596	0.0290707	0.87657	1.01161	-0.337085	-0.137427	-0.0808371	-0.250734	-0.375525	0.0648322	-0.1	-0.00207031	0.970735	0.0248131	-0.182453	-1.43868	0.36388	0.1	-0.00152637	-0.0133312	-0.0368794	0.271527	-0.314886	-0.344906	-0.0654607	2.2306	1.76699	5.73056e-06	8.11363e-06	-0.736762	-0.401675	-0.0494349	2.11664	1.74543	9.36602e-06	5.24658e-06
3	-0.225922	0.0809251	0.0338843	0.879206	1.01583	-0.337693	-0.177542	-0.0865461	-0.264402	-0.369567	-0.0291088	-0.1	-0.00207031	0.967844	0.0288241	-0.201257	-1.32105	0.364633	0.1	-0.00152637	-0.0073543	-0.0457082	0.280648	-0.319261	-0.340146	-0.040757	2.26551	1.78147	5.73056e-06	8.11363e-06	-0.772245	-0.381542	-0.0660324	2.13814	1.735	9.36602e-06	5.24658e-06
3.01	-0.223168	0.0794482	0.0382351	0.881365	1.01956	-0.337918	-0.208421	-0.0863644	-0.272909	-0.389907	-0.101308	-0.1	-0.00207031	0.954681	0.0279838	-0.224482	-1.19819	0.363281	0.1	-0.00152637	-0.00678759	-0.0501802	0.287426	-0.321732	-0.335566	-0.0175704	2.29055	1.79293	5.73056e-06	8.11363e-06	-0.803858	-0.359056	-0.0835077	2.1576	1.72571	9.36602e-06	5.24658e-06
3.02	-0.217448	0.0743614	0.0425235	0.883058	1.02273	-0.337801	-0.23035	-0.0815289	-0.276627	-0.43629	-0.150105	-0.1	-0.00207031	0.932394	0.0237669	-0.253205	-1.07286	0.358625	0.1	-0.00152637	-0.0112477	-0.0513521	0.291486	-0.322508	-0.33088	0.00303417	2.30499	1.80103	5.73056e-06	8.11363e-06	-0.8304	-0.335249	-0.10111	2.1743	1.71793	9.36602e-06	5.24658e-06
3.03	-0.20924	0.0670694	0.04722	0.884343	1.02522	-0.337431	-0.243999	-0.0737888	-0.276979	-0.506551	-0.177018	-0.1	-0.00207031	0.902582	0.017966	-0.287959	-0.948711	0.3499	0.1	-0.00152637	-0.0200343	-0.0506072	0.292475	-0.322107	-0.325756	0.0201558	2.30856	1.80573	5.73056e-06	8.11363e-06	-0.850875	-0.311336	-0.118043	2.18768	1.71167	9.36602e-06	5.24658e-06
3.04	-0.199213	0.0591226	0.0527594	0.885284	1.02695	-0.336913	-0.250108	-0.0651212	-0.275906	-0.597203	-0.185823	-0.1	-0.00207031	0.867308	0.0124017	-0.328341	-0.830193	0.337088	0.1	-0.00152637	-0.0321924	-0.0494311	0.290136	-0.321226	-0.3199	0.0331792	2.30148	1.80728	5.73056e-06	8.11363e-06	-0.864524	-0.288604	-0.133555	2.19737	1.70667	9.36602e-06	5.24658e-06
3.05	-0.188226	0.0519651	0.0594372	0.885922	1.0278	-0.336352	-0.249193	-0.0573909	-0.275213	-0.704123	-0.18128	-0.1	-0.00207031	0.829037	0.00862068	-0.372758	-0.722339	0.32104	0.1	-0.00152637	-0.0465727	-0.0491644	0.284357	-0.320595	-0.313133	0.0418504	2.2844	1.80613	5.73056e-06	8.11363e-06	-0.870844	-0.26829	-0.147021	2.2031	1.70252	9.36602e-06	5.24658e-06
3.06	-0.177297	0.04671	0.0673432	0.886261	1.02769	-0.335831	-0.241346	-0.0520434	-0.27604	-0.823134	-0.167946	-0.1	-0.00207031	0.790467	0.00761122	-0.418506	-0.630277	0.303515	0.1	-0.00152637	-0.0619195	-0.0507884	0.275195	-0.320847	-0.305437	0.0462734	2.25823	1.80294	5.73056e-06	8.11363e-06	-0.869582	-0.251458	-0.157996	2.20474	1.69876	9.36602e-06	5.24658e-06
3.07	-0.167497	0.0440042	0.0763638	0.886286	1.02655	-0.335402	-0.226178	-0.0499175	-0.278652	-0.950396	-0.149385	-0.1	-0.00207031	0.75425	0.00969707	-0.462019	-0.558608	0.287037	0.1	-0.00152637	-0.0769794	-0.0547865	0.262856	-0.322422	-0.29696	0.046823	2.22409	1.79859	5.73056e-06	8.11363e-06	-0.860701	-0.238899	-0.166217	2.20225	1.69507	9.36602e-06	5.24658e-06
3.08	-0.159807	0.0439764	0.086232	0.88595	1.02432	-0.335097	-0.202919	-0.0512184	-0.282557	-1.08258	-0.127862	-0.1	-0.00207031	0.722662	0.0145877	-0.499377	-0.510787	0.274722	0.1	-0.00152637	-0.0906389	-0.0611183	0.24762	-0.325514	-0.287967	0.0440078	2.18316	1.79417	5.73056e-06	8.11363e-06	-0.84432	-0.231066	-0.171558	2.19564	1.69129	9.36602e-06	5.24658e-06
3.09	-0.154987	0.0462834	0.0966072	0.885201	1.02096	-0.334926	-0.170628	-0.0556059	-0.286756	-1.21685	-0.104489	-0.1	-0.00207031	0.69728	0.0215108	-0.527094	-0.488646	0.270062	0.1	-0.00152637	-0.102069	-0.0692862	0.229773	-0.330079	-0.278781	0.0383354	2.13655	1.79084	5.73056e-06	8.11363e-06	-0.820652	-0.22806	-0.173955	2.18506	1.68736	9.36602e-06	5.24658e-06
3.1	-0.153449	0.0502396	0.107156	0.883981	1.01649	-0.334876	-0.128451	-0.0623601	-0.290073	-1.3507	-0.0795367	-0.1	-0.00207031	0.67875	0.0294354	-0.542731	-0.492091	0.276542	0.1	-0.00152637	-0.110834	-0.0784652	0.209547	-0.335879	-0.269709	0.0302274	2.08531	1.78963	5.73056e-06	8.11363e-06	-0.789952	-0.229657	-0.173338	2.17074	1.68324	9.36602e-06	5.24658e-06
